<?xml version="1.0" encoding="UTF-8" standalone="no"?>
<!DOCTYPE svg PUBLIC "-//W3C//DTD SVG 1.1//EN"
 "http://www.w3.org/Graphics/SVG/1.1/DTD/svg11.dtd">
<!-- Generated by graphviz version 12.2.1 (0)
 -->
<!-- Title: T Pages: 1 -->
<svg width="412pt" height="332pt"
 viewBox="0.00 0.00 412.00 332.00" xmlns="http://www.w3.org/2000/svg" xmlns:xlink="http://www.w3.org/1999/xlink">
<g id="graph0" class="graph" transform="scale(1 1) rotate(0) translate(4 328)">
<title>T</title>
<polygon fill="white" stroke="none" points="-4,4 -4,-328 408,-328 408,4 -4,4"/>
<!-- A -->
<g id="node1" class="node">
<title>A</title>
<polygon fill="none" stroke="black" points="265,-36 147.75,-36 147.75,0 265,0 265,-36"/>
<text text-anchor="middle" x="206.38" y="-12.95" font-family="Times,serif" font-size="14.00">(A) Initial commit</text>
</g>
<!-- B -->
<g id="node2" class="node">
<title>B</title>
<polygon fill="none" stroke="black" points="268.38,-108 144.38,-108 144.38,-72 268.38,-72 268.38,-108"/>
<text text-anchor="middle" x="206.38" y="-84.95" font-family="Times,serif" font-size="14.00">(B) Second commit</text>
</g>
<!-- A&#45;&gt;B -->
<g id="edge1" class="edge">
<title>A&#45;&gt;B</title>
<path fill="none" stroke="black" d="M206.38,-47.76C206.38,-55.96 206.38,-64.63 206.38,-71.9"/>
<polygon fill="black" stroke="black" points="209.88,-47.82 206.38,-37.82 202.88,-47.82 209.88,-47.82"/>
</g>
<!-- C -->
<g id="node3" class="node">
<title>C</title>
<polygon fill="none" stroke="black" points="202.75,-180 0,-180 0,-144 202.75,-144 202.75,-180"/>
<text text-anchor="middle" x="101.38" y="-156.95" font-family="Times,serif" font-size="14.00">(C) Third commit on main branch</text>
</g>
<!-- B&#45;&gt;C -->
<g id="edge2" class="edge">
<title>B&#45;&gt;C</title>
<path fill="none" stroke="black" d="M170.65,-114.82C156.42,-124.31 140.34,-135.02 127.27,-143.74"/>
<polygon fill="black" stroke="black" points="172.51,-117.78 178.89,-109.32 168.63,-111.96 172.51,-117.78"/>
</g>
<!-- D -->
<g id="node4" class="node">
<title>D</title>
<polygon fill="none" stroke="black" points="404,-180 220.75,-180 220.75,-144 404,-144 404,-180"/>
<text text-anchor="middle" x="312.38" y="-156.95" font-family="Times,serif" font-size="14.00">(D) Commit on feature branch</text>
</g>
<!-- B&#45;&gt;D -->
<g id="edge3" class="edge">
<title>B&#45;&gt;D</title>
<path fill="none" stroke="black" d="M242.44,-114.82C256.81,-124.31 273.04,-135.02 286.24,-143.74"/>
<polygon fill="black" stroke="black" points="244.39,-111.91 234.11,-109.32 240.53,-117.75 244.39,-111.91"/>
</g>
<!-- E -->
<g id="node5" class="node">
<title>E</title>
<polygon fill="none" stroke="black" points="266.12,-252 146.62,-252 146.62,-216 266.12,-216 266.12,-252"/>
<text text-anchor="middle" x="206.38" y="-228.95" font-family="Times,serif" font-size="14.00">(E) Merge commit</text>
</g>
<!-- C&#45;&gt;E -->
<g id="edge4" class="edge">
<title>C&#45;&gt;E</title>
<path fill="none" stroke="black" d="M137.1,-186.82C151.33,-196.31 167.41,-207.02 180.48,-215.74"/>
<polygon fill="black" stroke="black" points="139.12,-183.96 128.86,-181.32 135.24,-189.78 139.12,-183.96"/>
</g>
<!-- D&#45;&gt;E -->
<g id="edge5" class="edge">
<title>D&#45;&gt;E</title>
<path fill="none" stroke="black" d="M276.31,-186.82C261.94,-196.31 245.71,-207.02 232.51,-215.74"/>
<polygon fill="black" stroke="black" points="278.22,-189.75 284.64,-181.32 274.36,-183.91 278.22,-189.75"/>
</g>
<!-- F -->
<g id="node6" class="node">
<title>F</title>
<polygon fill="none" stroke="black" points="280.38,-324 132.38,-324 132.38,-288 280.38,-288 280.38,-324"/>
<text text-anchor="middle" x="206.38" y="-300.95" font-family="Times,serif" font-size="14.00">(F) Most recent commit</text>
</g>
<!-- E&#45;&gt;F -->
<g id="edge6" class="edge">
<title>E&#45;&gt;F</title>
<path fill="none" stroke="black" d="M206.38,-263.76C206.38,-271.96 206.38,-280.63 206.38,-287.9"/>
<polygon fill="black" stroke="black" points="209.88,-263.82 206.38,-253.82 202.88,-263.82 209.88,-263.82"/>
</g>
</g>
</svg>
